<?xml version="1.0" encoding="UTF-8"?>
<svg width="261px" height="93px" viewBox="0 0 261 93" version="1.1" xmlns="http://www.w3.org/2000/svg" xmlns:xlink="http://www.w3.org/1999/xlink">
    <!-- Generator: Sketch 52.3 (67297) - http://www.bohemiancoding.com/sketch -->
    <title>Logo</title>
    <desc>Created with Sketch.</desc>
    <defs>
        <filter x="-8.1%" y="-25.3%" width="116.2%" height="150.6%" filterUnits="objectBoundingBox" id="filter-1">
            <feOffset dx="0" dy="2" in="SourceAlpha" result="shadowOffsetOuter1"></feOffset>
            <feGaussianBlur stdDeviation="4" in="shadowOffsetOuter1" result="shadowBlurOuter1"></feGaussianBlur>
            <feColorMatrix values="0 0 0 0 0   0 0 0 0 0   0 0 0 0 0  0 0 0 0.3028476 0" type="matrix" in="shadowBlurOuter1" result="shadowMatrixOuter1"></feColorMatrix>
            <feMerge>
                <feMergeNode in="shadowMatrixOuter1"></feMergeNode>
                <feMergeNode in="SourceGraphic"></feMergeNode>
            </feMerge>
        </filter>
    </defs>
    <g id="Page-1" stroke="none" stroke-width="1" fill="none" fill-rule="evenodd">
        <g id="Logo" filter="url(#filter-1)" transform="translate(7.000000, 4.000000)">
            <path d="M178.650704,53.5437402 L173.599573,53.5437402 L173.125986,48.883575 L163.65424,48.883575 L160.180799,53.5437402 L155.129668,53.5437402 L171.705224,32.6585568 L176.756355,32.6585568 L178.650704,53.5437402 Z M172.969057,45.511087 L172.492668,37.6381458 L166.337434,45.511087 L172.969057,45.511087 Z M136.662566,46.7944862 C138.241657,46.6362003 139.817946,46.6362003 141.397038,46.3124985 C140.767923,49.0447129 142.187284,50.3281121 145.187137,50.3281121 C146.921756,50.3281121 151.974288,49.0447129 150.709053,46.3124985 C150.393795,45.511087 146.448169,44.5471116 145.816252,44.5471116 C137.45001,42.9400106 139.661018,34.9073574 145.974581,32.6585568 C148.814704,31.6945814 155.128267,31.5348695 157.339275,33.943382 C158.129522,35.0684953 158.600307,36.8353083 157.971192,38.7632591 C156.392101,38.7632591 154.813009,38.924397 153.233918,38.924397 C154.024164,34.5865076 146.288438,35.550483 145.341263,37.9604216 C144.394089,41.0120597 154.813009,40.2092222 155.760184,44.3859737 C157.339275,50.6532399 149.60495,54.6688535 143.763573,54.0257279 C138.241657,53.5437402 135.398732,51.7783532 136.662566,46.7944862 Z M193.329108,72.017559 C194.434612,70.2521721 195.698446,68.1630833 197.908053,67.5199577 C200.434319,66.8796841 204.066089,66.8796841 204.066089,69.9313223 C204.066089,73.62466 200.592648,77 196.647021,77 C191.594489,77 193.329108,72.1786969 193.329108,72.017559 Z M195.540116,72.017559 C193.802695,76.6777242 200.119061,75.8748867 201.538421,72.017559 C202.643926,68.8062089 199.644072,68.0019454 197.274735,69.4464826 C196.64562,69.9313223 196.013703,70.8952977 195.540116,72.017559 Z M134.294629,77 L132.083621,77 L131.925292,74.7497734 L127.664407,74.7497734 L126.085316,77 L123.71878,77 L131.453106,67.1991079 L133.664114,67.1991079 L134.294629,77 Z M131.925292,73.1426723 L131.610034,69.4464826 L128.925438,73.1426723 L131.925292,73.1426723 Z M66.7327773,77 L64.2079124,77 L64.049583,74.7497734 L59.7872973,74.7497734 L58.209607,77 L56,77 L63.4176662,67.1991079 L65.6286743,67.1991079 L66.7327773,77 Z M64.049583,73.1426723 L63.5759957,69.4464826 L61.2080592,73.1426723 L64.049583,73.1426723 Z M73.6782573,32.6585568 C77.940543,32.6585568 82.9916738,32.1765691 86.9387017,33.1405445 C89.4635665,33.4613943 91.2009874,36.1936086 91.2009874,38.4424093 C91.2009874,46.7944862 86.1498566,54.1868658 75.5740076,53.7048781 L66.4175195,53.7048781 L73.6782573,32.6585568 Z M77.3100274,36.1936086 C75.7323371,40.6912099 73.9949163,45.6722249 72.4158249,50.1712522 C76.8364401,50.1712522 80.7820668,50.8143778 83.4652611,47.2779 C85.2012808,44.7096755 88.5163919,37.1575841 83.4652611,36.5158845 C81.4139836,36.0324707 79.2043766,36.1936086 77.3100274,36.1936086 Z M111.088852,53.7048781 L106.037721,53.7048781 L105.565535,49.0461389 L96.2521182,49.0461389 L92.7786776,53.7063041 L87.7275468,53.7063041 L103.986443,32.6599828 L109.037574,32.6599828 L111.088852,53.7048781 Z M105.407205,45.511087 L104.933618,37.7992837 L99.093642,45.511087 L105.407205,45.511087 Z M226.953806,53.7048781 L233.899286,36.1936086 L226.953806,36.1936086 L228.374568,32.6585568 L247,32.6585568 L245.738969,36.1936086 L238.633758,36.1936086 L231.529949,53.7048781 L226.953806,53.7048781 Z M204.064687,53.7048781 L212.2726,32.8196947 L217.165401,32.8196947 L210.378251,50.1712522 L222.216532,50.1712522 L220.638842,53.7048781 L204.064687,53.7048781 Z M188.594636,32.6585568 L193.329108,32.6585568 L187.489132,47.7584617 C187.173874,49.0447129 187.807192,49.5267006 188.436307,49.6892645 C190.488985,51.1352276 195.540116,51.4546514 196.802548,48.0821635 L202.960585,32.6585568 L207.853386,32.6585568 L201.066235,49.0461389 C200.434319,50.6532399 198.22331,53.7063041 195.699847,54.1868658 C193.488839,54.5077156 186.385029,55.6328289 182.911588,51.4546514 C182.438001,51.2963655 182.282474,50.6532399 182.756061,49.2072768 L188.594636,32.6585568 Z M114.878951,46.7944862 C116.456642,46.6362003 117.877403,46.6362003 119.456495,46.3124985 C118.824578,49.0447129 120.403669,50.3281121 123.086864,50.3281121 C124.979812,50.3281121 130.032344,49.0447129 128.769911,46.3124985 C128.611582,45.511087 124.349296,44.5471116 123.875709,44.5471116 C115.509467,42.9400106 117.719074,34.9073574 124.192368,32.6585568 C127.03249,31.6945814 133.190526,31.5348695 135.243205,33.943382 C136.345907,35.0684953 136.504236,36.8353083 136.030649,38.7632591 C134.451558,38.7632591 133.030796,38.924397 131.451704,38.924397 C132.083621,34.5865076 124.349296,35.550483 123.402122,37.9604216 C122.296617,41.0120597 132.715538,40.2092222 133.819641,44.3859737 C135.243205,50.6532399 127.506078,54.6688535 121.666102,54.0257279 C116.456642,53.5437402 113.29986,51.7783532 114.878951,46.7944862 Z M218.270905,77 L222.058203,67.1991079 L224.269211,67.1991079 L226.00523,73.62466 L228.374568,67.1991079 L230.427247,67.1991079 L226.637147,77 L224.428941,77 L222.690119,70.41331 L220.323584,77 L218.270905,77 Z M172.969057,77 C174.071759,73.62466 175.335593,70.41331 176.439696,67.1991079 L178.650704,67.1991079 C177.389673,70.41331 176.124438,73.62466 175.018934,77 L172.969057,77 Z M151.500701,77 L154.340823,68.8062089 L151.500701,68.8062089 L151.974288,67.1991079 L160.339129,67.1991079 L159.707212,68.8062089 L156.551831,68.8062089 L153.708906,77 L151.500701,77 Z M105.722463,77 L109.037574,67.1991079 L111.247181,67.1991079 L107.775142,77 L105.722463,77 Z M84.0971779,77 L83.6235906,67.1991079 L85.8331976,67.1991079 L86.1498566,74.2677857 L91.2009874,67.1991079 L93.4105944,67.1991079 L89.9371538,72.017559 L86.1498566,77 L84.0971779,77 Z" id="Shape" fill="#FFFFFF" fill-rule="nonzero"></path>
            <polygon id="Path" fill="#259A7C" points="235 59 64.1092058 59 63 61 233.893606 61"></polygon>
            <path d="M16.6390911,79 C22.0798864,69.620399 31.6790343,64.058668 43.0392331,59.2884468 C40.6405113,44.9834265 40.3195455,30.5189756 41.9186934,16.0545247 C30.7189775,32.5859304 18.8787502,46.254639 6.07988638,59.6087189 L9.44008521,62.6294358 L12.1597728,66.1270337 L9.92011362,68.8274784 C7.20042606,65.6473309 4.80028404,62.7874556 0,61.0393621 L0,60.562481 C17.2796023,42.9164717 33.6005681,23.6846213 48,0 C45.1198296,13.6701195 44.4793183,27.1808083 44.6398012,40.6914972 C44.7988638,47.8433018 46.2389491,54.8370868 47.3594887,61.6714411 C36.6398012,65.169039 26.7196876,71.0510421 20.9593467,78.8391585 L16.6390911,79 Z" id="Path" fill="#FFFFFF"></path>
            <path d="M13.8450178,60.0179136 C13.0456843,60.0179136 12.566651,59.375658 12.0876178,58.5710584 C11.6085846,56.6457157 13.2058344,55.5249725 14.1639009,54.4013812 C13.8450178,53.11687 14.8030843,51.0306073 15.9198836,50.2288559 C17.1968332,49.2661845 18.794083,49.1052646 20.3913329,49.9084401 L24.3823316,54.2390372 C24.3823316,54.3999571 24.7012147,54.8812928 24.2221814,55.3626285 C21.3493993,57.1270513 17.6758664,60.0179136 13.8450178,60.0179136 Z M37.1560786,49.9098642 C38.1141451,50.23028 38.4330282,50.7101916 38.9120614,51.5147912 C39.3910946,53.2777899 37.7938448,54.4013812 36.9959285,55.5249725 C37.1560786,56.9689796 36.1980122,58.8928982 35.0797956,59.8555696 C33.802846,60.818241 32.2055962,60.9791609 30.6083463,60.0164895 L26.6173476,55.8439642 C26.6173476,55.5235484 26.4571974,55.2017086 26.9362307,54.7203729 C29.8118473,52.9587982 33.3238128,49.9098642 37.1560786,49.9098642 Z M34.7609125,46.8609302 C34.9210627,45.8982588 34.7609125,45.2560032 33.9629962,44.6137476 C32.6860467,43.4901563 30.9286467,44.1324119 29.491547,44.7746675 C28.3733304,43.971492 26.1383144,43.6510762 24.8613648,44.6137476 C23.5829981,45.4169231 22.6249316,46.5390903 22.7850818,48.463009 L24.8613648,54.0781173 C25.3403981,54.0781173 25.499131,54.4013812 26.1383144,54.2390372 C29.1726639,52.1541986 33.1650799,50.23028 34.7609125,46.8609302 Z M16.0800338,63.2234954 C16.0800338,64.1861667 16.3989169,64.5080066 17.0381003,65.4706779 C18.3150498,66.5942692 20.2311827,65.6287497 21.5081322,65.309758 C22.6263489,66.1100854 24.8613648,66.1100854 26.1383144,65.4706779 C27.5754141,64.5080066 28.2131802,63.2234954 28.2131802,61.4604966 L25.9781642,56.0063082 C25.8194313,55.8453883 25.499131,55.5249725 24.8613648,55.8453883 C21.9871655,57.608387 17.9961667,59.6946497 16.0800338,63.2234954 Z" id="Shape" fill="#259A7C" fill-rule="nonzero"></path>
        </g>
    </g>
</svg>